<?xml version="1.0" encoding="UTF-8"?>
<!DOCTYPE svg PUBLIC "-//W3C//DTD SVG 1.1//EN" "http://www.w3.org/Graphics/SVG/1.1/DTD/svg11.dtd">
<svg version="1.1" xmlns="http://www.w3.org/2000/svg" xmlns:xlink="http://www.w3.org/1999/xlink" x="0" y="0" width="2400" height="800" viewBox="0, 0, 2400, 800">
  <g id="SVGRepo_iconCarrier">
    <text transform="matrix(1, 0, 0, 1, 1293.711, 473.868)">
      <tspan x="-482.316" y="137.831" font-family="PingFangTC-Regular" font-size="400" fill="#5B5B5B">plato</tspan>
    </text>
    <g id="ticket-svgrepo-com">
      <g>
        <path d="M463.692,366.666 C463.692,348.256 478.615,333.333 497.025,333.333 C515.435,333.333 530.358,348.256 530.358,366.666 L530.358,433.333 C530.358,451.743 515.435,466.666 497.025,466.666 C478.615,466.666 463.692,451.743 463.692,433.333 L463.692,366.666 z" fill="#000000"/>
        <path d="M463.692,366.666 C463.692,348.256 478.615,333.333 497.025,333.333 C515.435,333.333 530.358,348.256 530.358,366.666 L530.358,433.333 C530.358,451.743 515.435,466.666 497.025,466.666 C478.615,466.666 463.692,451.743 463.692,433.333 L463.692,366.666 z" fill-opacity="0" stroke="#1C274C" stroke-width="50"/>
      </g>
      <path d="M463.955,633.43 L438.955,633.356 L438.955,633.356 L463.955,633.43 z M464.148,566.666 L489.148,566.74 L489.148,566.666 L464.148,566.666 z M102.011,627.613 L84.355,645.313 L84.355,645.313 L102.011,627.613 z M102.011,172.385 L84.355,154.686 L84.355,154.686 L102.011,172.385 z M95.461,341.79 L83.272,363.616 L83.272,363.616 L95.461,341.79 z M64.044,299.649 L39.066,298.599 L64.044,299.649 z M95.461,458.21 L83.272,436.383 L83.272,436.383 L95.461,458.21 z M64.044,500.35 L89.022,499.3 L64.044,500.35 z M698.588,341.79 L710.778,363.616 L698.588,341.79 z M730.005,299.649 L754.985,298.599 L754.985,298.599 L730.005,299.649 z M692.038,172.385 L709.695,154.686 L709.695,154.686 L692.038,172.385 z M698.588,458.21 L686.398,480.04 L686.398,480.04 L698.588,458.21 z M730.005,500.35 L754.985,501.4 L754.985,501.4 L730.005,500.35 z M692.038,627.613 L709.695,645.313 L709.695,645.313 L692.038,627.613 z M728.482,477.733 L750.295,465.52 L750.295,465.52 L728.482,477.733 z M728.482,322.267 L750.295,334.48 L750.295,334.48 L728.482,322.267 z M65.57,477.733 L43.755,465.52 L43.755,465.52 L65.57,477.733 z M65.57,322.267 L87.385,310.056 L87.384,310.056 L65.57,322.267 z M464.148,233.333 L489.148,233.333 L489.148,233.26 L464.148,233.333 z M463.905,149.951 L438.905,150.024 L438.905,150.024 L463.905,149.951 z M547.952,133.963 L548.595,108.971 L547.952,133.963 z M564.812,665.473 L565.868,690.45 L565.868,690.45 L564.812,665.473 z M459.008,661.803 L441.355,644.1 L441.355,644.1 L459.008,661.803 z M488.955,633.503 L489.148,566.74 L439.148,566.593 L438.955,633.356 L488.955,633.503 z M497.565,558.333 C502.272,558.333 505.982,562.123 505.982,566.666 L555.982,566.666 C555.982,534.39 529.768,508.333 497.565,508.333 L497.565,558.333 z M497.565,508.333 C465.362,508.333 439.148,534.39 439.148,566.666 L489.148,566.666 C489.148,562.123 492.858,558.333 497.565,558.333 L497.565,508.333 z M330.192,158.333 L447.198,158.333 L447.198,108.333 L330.192,108.333 L330.192,158.333 z M430.622,641.666 L330.192,641.666 L330.192,691.666 L430.622,691.666 L430.622,641.666 z M330.192,641.666 C266.477,641.666 221.199,641.613 186.848,637.006 C153.21,632.496 133.82,624.033 119.667,609.913 L84.355,645.313 C109.352,670.246 141.042,681.31 180.202,686.563 C218.649,691.72 267.887,691.666 330.192,691.666 L330.192,641.666 z M330.192,108.333 C267.887,108.333 218.649,108.28 180.202,113.436 C141.042,118.688 109.352,129.751 84.355,154.686 L119.667,190.085 C133.82,175.967 153.21,167.504 186.848,162.993 C221.199,158.386 266.477,158.333 330.192,158.333 L330.192,108.333 z M83.272,363.616 C96.129,370.796 104.694,384.433 104.694,400 L154.694,400 C154.694,365.546 135.645,335.593 107.65,319.961 L83.272,363.616 z M89.022,300.699 C91.623,238.831 100.074,209.629 119.667,190.085 L84.355,154.686 C50.037,188.919 41.696,236.061 39.066,298.599 L89.022,300.699 z M104.694,400 C104.694,415.566 96.129,429.203 83.272,436.383 L107.65,480.04 C135.645,464.406 154.694,434.453 154.694,400 L104.694,400 z M39.066,501.4 C41.696,563.94 50.037,611.08 84.355,645.313 L119.667,609.913 C100.074,590.37 91.623,561.17 89.022,499.3 L39.066,501.4 z M689.355,400 C689.355,384.433 697.922,370.796 710.778,363.616 L686.398,319.961 C658.405,335.593 639.355,365.546 639.355,400 L689.355,400 z M754.985,298.599 C752.355,236.061 744.012,188.919 709.695,154.686 L674.382,190.085 C693.975,209.629 702.428,238.831 705.028,300.699 L754.985,298.599 z M710.778,436.383 C697.922,429.203 689.355,415.566 689.355,400 L639.355,400 C639.355,434.453 658.405,464.406 686.398,480.04 L710.778,436.383 z M705.028,499.3 C702.428,561.17 693.975,590.37 674.382,609.913 L709.695,645.313 C744.012,611.08 752.355,563.94 754.985,501.4 L705.028,499.3 z M686.398,480.04 C695.865,485.323 702.048,488.786 706.228,491.423 C708.288,492.723 709.202,493.413 709.475,493.643 C709.958,494.043 708.275,492.82 706.665,489.943 L750.295,465.52 C747.535,460.59 743.835,457.18 741.372,455.14 C738.702,452.926 735.735,450.92 732.905,449.136 C727.315,445.61 719.705,441.37 710.778,436.383 L686.398,480.04 z M754.985,501.4 C755.225,495.686 755.495,489.79 755.278,484.86 C755.058,479.863 754.285,472.65 750.295,465.52 L706.665,489.943 C704.978,486.93 705.228,484.856 705.325,487.056 C705.368,488.013 705.375,489.406 705.318,491.546 C705.265,493.68 705.158,496.156 705.028,499.3 L754.985,501.4 z M710.778,363.616 C719.705,358.63 727.315,354.39 732.905,350.863 C735.735,349.08 738.702,347.073 741.372,344.86 C743.835,342.82 747.535,339.41 750.295,334.48 L706.665,310.056 C708.275,307.181 709.958,305.957 709.475,306.357 C709.202,306.585 708.288,307.277 706.228,308.575 C702.048,311.212 695.865,314.676 686.398,319.961 L710.778,363.616 z M705.028,300.699 C705.158,303.842 705.265,306.32 705.318,308.452 C705.375,310.593 705.368,311.988 705.325,312.942 C705.228,315.142 704.978,313.068 706.665,310.056 L750.295,334.48 C754.285,327.351 755.058,320.136 755.278,315.139 C755.495,310.211 755.225,304.315 754.985,298.599 L705.028,300.699 z M83.272,436.383 C74.345,441.37 66.735,445.61 61.144,449.136 C58.316,450.92 55.349,452.926 52.677,455.14 C50.214,457.18 46.516,460.59 43.755,465.52 L87.384,489.943 C85.775,492.82 84.091,494.043 84.574,493.643 C84.85,493.413 85.763,492.723 87.821,491.423 C92.001,488.786 98.186,485.323 107.65,480.04 L83.272,436.383 z M89.022,499.3 C88.89,496.156 88.787,493.68 88.732,491.546 C88.676,489.406 88.683,488.013 88.725,487.056 C88.821,484.856 89.071,486.93 87.384,489.943 L43.755,465.52 C39.765,472.65 38.993,479.863 38.773,484.86 C38.556,489.79 38.826,495.686 39.066,501.4 L89.022,499.3 z M107.65,319.961 C98.186,314.676 92.001,311.212 87.82,308.575 C85.763,307.277 84.85,306.585 84.574,306.357 C84.091,305.957 85.775,307.181 87.385,310.056 L43.755,334.48 C46.516,339.41 50.213,342.82 52.677,344.86 C55.349,347.073 58.316,349.08 61.144,350.863 C66.735,354.39 74.345,358.63 83.272,363.616 L107.65,319.961 z M39.066,298.599 C38.826,304.315 38.556,310.211 38.773,315.139 C38.993,320.136 39.765,327.351 43.755,334.48 L87.384,310.056 C89.071,313.068 88.821,315.142 88.725,312.942 C88.683,311.988 88.676,310.593 88.732,308.452 C88.787,306.32 88.89,303.842 89.022,300.699 L39.066,298.599 z M489.148,233.26 L488.905,149.879 L438.905,150.024 L439.148,233.406 L489.148,233.26 z M497.565,241.666 C492.858,241.666 489.148,237.877 489.148,233.333 L439.148,233.333 C439.148,265.608 465.362,291.666 497.565,291.666 L497.565,241.666 z M505.982,233.333 C505.982,237.877 502.272,241.666 497.565,241.666 L497.565,291.666 C529.768,291.666 555.982,265.608 555.982,233.333 L505.982,233.333 z M505.982,150.539 L505.982,233.333 L555.982,233.333 L555.982,150.539 L505.982,150.539 z M547.305,158.955 C620.245,160.836 652.952,168.708 674.385,190.085 L709.695,154.686 C672.612,117.694 620.155,110.817 548.595,108.971 L547.305,158.955 z M555.982,150.539 C555.982,155.2 552.138,159.079 547.305,158.955 L548.595,108.971 C525.122,108.366 505.982,127.278 505.982,150.539 L555.982,150.539 z M447.198,158.333 C442.685,158.333 438.918,154.675 438.905,150.024 L488.905,149.879 C488.838,126.856 470.128,108.333 447.198,108.333 L447.198,158.333 z M565.868,690.45 C628.355,687.81 675.458,679.466 709.695,645.313 L674.385,609.913 C654.812,629.436 625.568,637.883 563.758,640.493 L565.868,690.45 z M505.982,566.666 L505.982,632.55 L555.982,632.55 L555.982,566.666 L505.982,566.666 z M438.955,633.356 C438.942,637.366 438.932,640.453 438.858,643.086 C438.785,645.736 438.658,647.306 438.525,648.27 C438.395,649.213 438.345,648.896 438.735,647.956 C439.205,646.816 440.062,645.39 441.355,644.1 L476.658,679.506 C484.512,671.673 487.058,662.363 488.062,655.07 C488.965,648.493 488.935,640.633 488.955,633.503 L438.955,633.356 z M430.622,691.666 C437.752,691.666 445.612,691.72 452.188,690.836 C459.488,689.856 468.805,687.336 476.658,679.506 L441.355,644.1 C442.648,642.81 444.078,641.956 445.218,641.49 C446.162,641.103 446.478,641.153 445.535,641.28 C444.572,641.41 442.998,641.533 440.352,641.6 C437.718,641.666 434.632,641.666 430.622,641.666 L430.622,691.666 z M563.758,640.493 C559.732,640.663 556.655,640.793 554.028,640.833 C551.392,640.873 549.855,640.813 548.942,640.723 C548.055,640.636 548.445,640.583 549.472,640.973 C550.702,641.443 552.145,642.283 553.415,643.5 L518.812,679.593 C526.952,687.396 536.458,689.736 544.052,690.483 C550.782,691.146 558.752,690.75 565.868,690.45 L563.758,640.493 z M505.982,632.55 C505.982,639.843 505.925,647.913 506.858,654.656 C507.902,662.183 510.592,671.713 518.812,679.593 L553.415,643.5 C554.735,644.766 555.638,646.21 556.148,647.403 C556.568,648.386 556.518,648.74 556.385,647.79 C556.252,646.82 556.122,645.22 556.052,642.51 C555.982,639.816 555.982,636.656 555.982,632.55 L505.982,632.55 z" fill="#1C274C"/>
    </g>
  </g>
</svg>
